<?xml version="1.0" encoding="iso-8859-1"?>
<!-- Generator: Adobe Illustrator 19.0.0, SVG Export Plug-In . SVG Version: 6.00 Build 0)  -->
<svg version="1.1" id="Capa_1" xmlns="http://www.w3.org/2000/svg" xmlns:xlink="http://www.w3.org/1999/xlink" x="0px" y="0px"
	 viewBox="0 0 512 512" style="enable-background:new 0 0 512 512;" xml:space="preserve">
<g>
	<g>
		<path d="M458.667,245.333h-32V128c0-17.673-14.327-32-32-32H117.333c-17.673,0-32,14.327-32,32v117.333h-32
			c-0.606-0.018-1.213-0.018-1.819,0c-17.171,0.502-30.684,14.829-30.181,32h21.333c-0.062-0.634-0.062-1.273,0-1.907
			c0.526-5.365,5.302-9.286,10.667-8.76H96c5.891,0,10.667-4.776,10.667-10.667V128c0-5.891,4.776-10.667,10.667-10.667h277.333
			c5.891,0,10.667,4.776,10.667,10.667v128c0,5.891,4.776,10.667,10.667,10.667h42.539c0.649-0.069,1.304-0.073,1.954-0.012
			c5.39,0.507,9.348,5.288,8.841,10.678h21.333c0.018-0.606,0.018-1.213,0-1.819C490.164,258.344,475.838,244.831,458.667,245.333z"
			/>
	</g>
</g>
<g>
	<g>
		<path d="M384,437.333c-0.634,0.062-1.273,0.062-1.907,0c-5.365-0.527-9.287-5.302-8.76-10.667c0-5.891-4.776-10.667-10.667-10.667
			H149.333c-5.813,0.067-10.529,4.727-10.667,10.539c0.069,0.649,0.073,1.304,0.012,1.954c-0.507,5.39-5.288,9.348-10.678,8.841H96
			v21.333h32c13.774,0.662,26.232-8.133,30.219-21.333h195.563c3.987,13.201,16.445,21.996,30.219,21.333h32v-21.333H384z"/>
	</g>
</g>
<g>
	<g>
		<path d="M490.667,298.667h-64c-11.782,0-21.333,9.551-21.333,21.333v170.667c0,11.782,9.551,21.333,21.333,21.333h64
			c11.782,0,21.333-9.551,21.333-21.333V320C512,308.218,502.449,298.667,490.667,298.667z M490.667,490.667h-64V320h64V490.667z"/>
	</g>
</g>
<g>
	<g>
		<path d="M85.333,298.667h-64C9.551,298.667,0,308.218,0,320v170.667C0,502.449,9.551,512,21.333,512h64
			c11.782,0,21.333-9.551,21.333-21.333V320C106.667,308.218,97.115,298.667,85.333,298.667z M85.333,490.667h-64V320h64V490.667z"
			/>
	</g>
</g>
<g>
	<g>
		<path d="M309.333,0H202.667c-11.782,0-21.333,9.551-21.333,21.333v32C181.333,59.224,186.109,64,192,64h32v42.667
			c0,5.891,4.776,10.667,10.667,10.667h42.667c5.891,0,10.667-4.776,10.667-10.667V64h32c5.891,0,10.667-4.776,10.667-10.667v-32
			C330.667,9.551,321.115,0,309.333,0z M309.333,42.667h-32c-5.891,0-10.667,4.776-10.667,10.667V96h-21.333V53.333
			c0-5.891-4.776-10.667-10.667-10.667h-32V21.333h106.667V42.667z"/>
	</g>
</g>
<g>
	<g>
		<rect x="42.667" y="352" width="21.333" height="21.333"/>
	</g>
</g>
<g>
	<g>
		<rect x="42.667" y="394.667" width="21.333" height="21.333"/>
	</g>
</g>
<g>
	<g>
		<rect x="42.667" y="437.333" width="21.333" height="21.333"/>
	</g>
</g>
<g>
	<g>
		<rect x="448" y="352" width="21.333" height="21.333"/>
	</g>
</g>
<g>
	<g>
		<rect x="448" y="394.667" width="21.333" height="21.333"/>
	</g>
</g>
<g>
	<g>
		<rect x="448" y="437.333" width="21.333" height="21.333"/>
	</g>
</g>
<g>
	<g>
		<path d="M352,309.333H160c-5.891,0-10.667,4.776-10.667,10.667v64c0,5.891,4.776,10.667,10.667,10.667h192
			c5.891,0,10.667-4.776,10.667-10.667v-64C362.667,314.109,357.891,309.333,352,309.333z M341.333,373.333H170.667v-42.667h170.667
			V373.333z"/>
	</g>
</g>
<g>
	<g>
		<rect x="149.333" y="266.667" width="128" height="21.333"/>
	</g>
</g>
<g>
	<g>
		<rect x="341.333" y="266.667" width="21.333" height="21.333"/>
	</g>
</g>
<g>
	<g>
		<rect x="298.667" y="266.667" width="21.333" height="21.333"/>
	</g>
</g>
<g>
	<g>
		<path d="M256,149.333c-23.564,0-42.667,19.103-42.667,42.667s19.103,42.667,42.667,42.667s42.667-19.103,42.667-42.667
			S279.564,149.333,256,149.333z M256,213.333c-11.782,0-21.333-9.551-21.333-21.333s9.551-21.333,21.333-21.333
			s21.333,9.551,21.333,21.333S267.782,213.333,256,213.333z"/>
	</g>
</g>
<g>
	<g>
		<rect x="96" y="149.333" width="96" height="21.333"/>
	</g>
</g>
<g>
	<g>
		<rect x="320" y="149.333" width="96" height="21.333"/>
	</g>
</g>
<g>
</g>
<g>
</g>
<g>
</g>
<g>
</g>
<g>
</g>
<g>
</g>
<g>
</g>
<g>
</g>
<g>
</g>
<g>
</g>
<g>
</g>
<g>
</g>
<g>
</g>
<g>
</g>
<g>
</g>
</svg>
