<?xml version="1.0" encoding="UTF-8" standalone="no"?>
<!-- Generator: Adobe Illustrator 19.0.0, SVG Export Plug-In . SVG Version: 6.00 Build 0)  -->

<svg
   xmlns:dc="http://purl.org/dc/elements/1.1/"
   xmlns:cc="http://creativecommons.org/ns#"
   xmlns:rdf="http://www.w3.org/1999/02/22-rdf-syntax-ns#"
   xmlns:svg="http://www.w3.org/2000/svg"
   xmlns="http://www.w3.org/2000/svg"
   xmlns:sodipodi="http://sodipodi.sourceforge.net/DTD/sodipodi-0.dtd"
   xmlns:inkscape="http://www.inkscape.org/namespaces/inkscape"
   version="1.1"
   id="Capa_1"
   x="0px"
   y="0px"
   viewBox="0 0 512 512"
   style="enable-background:new 0 0 512 512;"
   xml:space="preserve"
   sodipodi:docname="robot3.svg"
   inkscape:version="0.92.4 (5da689c313, 2019-01-14)"><metadata
   id="metadata145"><rdf:RDF><cc:Work
       rdf:about=""><dc:format>image/svg+xml</dc:format><dc:type
         rdf:resource="http://purl.org/dc/dcmitype/StillImage" /><dc:title></dc:title></cc:Work></rdf:RDF></metadata><defs
   id="defs143" /><sodipodi:namedview
   pagecolor="#ffffff"
   bordercolor="#666666"
   borderopacity="1"
   objecttolerance="10"
   gridtolerance="10"
   guidetolerance="10"
   inkscape:pageopacity="0"
   inkscape:pageshadow="2"
   inkscape:window-width="1920"
   inkscape:window-height="1017"
   id="namedview141"
   showgrid="false"
   inkscape:zoom="0.12"
   inkscape:cx="256"
   inkscape:cy="477.2464"
   inkscape:window-x="-8"
   inkscape:window-y="-8"
   inkscape:window-maximized="1"
   inkscape:current-layer="g28" />
<g
   id="g6">
	<g
   id="g4">
		<path
   d="M458.667,245.333h-32V128c0-17.673-14.327-32-32-32H117.333c-17.673,0-32,14.327-32,32v117.333h-32    c-0.606-0.018-1.213-0.018-1.819,0c-17.171,0.502-30.684,14.829-30.181,32h21.333c-0.062-0.634-0.062-1.273,0-1.907    c0.526-5.365,5.302-9.286,10.667-8.76H96c5.891,0,10.667-4.776,10.667-10.667V128c0-5.891,4.776-10.667,10.667-10.667h277.333    c5.891,0,10.667,4.776,10.667,10.667v128c0,5.891,4.776,10.667,10.667,10.667h42.539c0.649-0.069,1.304-0.073,1.954-0.012    c5.39,0.507,9.348,5.288,8.841,10.678h21.333c0.018-0.606,0.018-1.213,0-1.819C490.164,258.344,475.838,244.831,458.667,245.333z"
   id="path2" />
	</g>
</g>
<g
   id="g12">
	<g
   id="g10">
		<path
   d="M384,437.333c-0.634,0.062-1.273,0.062-1.907,0c-5.365-0.527-9.287-5.302-8.76-10.667c0-5.891-4.776-10.667-10.667-10.667    H149.333c-5.813,0.067-10.529,4.727-10.667,10.539c0.069,0.649,0.073,1.304,0.012,1.954c-0.507,5.39-5.288,9.348-10.678,8.841H96    v21.333h32c13.774,0.662,26.232-8.133,30.219-21.333h195.563c3.987,13.201,16.445,21.996,30.219,21.333h32v-21.333H384z"
   id="path8" />
	</g>
</g>
<g
   id="g18">
	<g
   id="g16">
		<path
   d="M490.667,298.667h-64c-11.782,0-21.333,9.551-21.333,21.333v170.667c0,11.782,9.551,21.333,21.333,21.333h64    c11.782,0,21.333-9.551,21.333-21.333V320C512,308.218,502.449,298.667,490.667,298.667z M490.667,490.667h-64V320h64V490.667z"
   id="path14" />
	</g>
</g>
<g
   id="g24">
	<g
   id="g22">
		<path
   d="M85.333,298.667h-64C9.551,298.667,0,308.218,0,320v170.667C0,502.449,9.551,512,21.333,512h64    c11.782,0,21.333-9.551,21.333-21.333V320C106.667,308.218,97.115,298.667,85.333,298.667z M85.333,490.667h-64V320h64V490.667z"
   id="path20" />
	</g>
</g>
<g
   id="g30">
	<g
   id="g28">
		<path
   d="M309.333,0H202.667c-11.782,0-21.333,9.551-21.333,21.333v32C181.333,59.224,186.109,64,192,64h32v42.667    c0,5.891,4.776,10.667,10.667,10.667h42.667c5.891,0,10.667-4.776,10.667-10.667V64h32c5.891,0,10.667-4.776,10.667-10.667v-32    C330.667,9.551,321.115,0,309.333,0z M309.333,42.667h-32c-5.891,0-10.667,4.776-10.667,10.667V96h-21.333V53.333    c0-5.891-4.776-10.667-10.667-10.667h-32V21.333h106.667V42.667z"
   id="path26" />
	<path
   style="fill:#000000;fill-opacity:1;stroke-width:0.33112583"
   d="m 245.32998,73.114524 -0.0916,-22.7649 -0.81046,-1.646994 c -1.03373,-2.100693 -3.05775,-4.124711 -5.15844,-5.158436 L 237.62249,42.73373 220.1556,42.6398 202.68871,42.54587 V 31.960988 21.376114 H 256 309.31126 v 10.584874 10.584876 l -17.46689,0.09393 -17.46689,0.09393 -1.64699,0.810464 c -2.10069,1.033725 -4.12471,3.057743 -5.15844,5.158436 l -0.81046,1.646994 -0.0916,22.7649 -0.0916,22.764901 H 256 245.42155 Z"
   id="path220"
   inkscape:connector-curvature="0" /><path
   style="fill:#000000;fill-opacity:1;stroke-width:0.33112583"
   d="m 106.65736,377.1031 c -0.005,-66.05639 0.1115,-62.15637 -1.98958,-66.39112 -2.21498,-4.46432 -5.48534,-7.7789 -9.760495,-9.89247 -4.598123,-2.27324 -4.669911,-2.27889 -29.056292,-2.28533 l -21.771523,-0.006 0.0041,-0.91059 c 0.01781,-3.97293 -0.803688,-20.18173 -1.035468,-20.43047 -0.897869,-0.96357 0.307571,-4.94078 2.122369,-7.00249 0.720924,-0.81902 2.074184,-1.89184 3.007244,-2.38404 l 1.696473,-0.89493 24.503311,-0.16556 24.503312,-0.16556 1.874359,-0.92046 c 2.05843,-1.01086 3.81175,-2.75007 4.98216,-4.9421 l 0.75938,-1.42221 0.16556,-66.72896 0.16556,-66.72897 1.08833,-2.21056 c 1.42615,-2.89673 3.44349,-4.6823 6.27986,-5.55836 2.12251,-0.65558 3.19295,-0.66057 141.804,-0.66057 138.61106,0 139.68149,0.005 141.80401,0.66057 2.83635,0.87606 4.85371,2.66163 6.27986,5.55836 l 1.08832,2.21056 0.16556,66.72897 0.16556,66.72896 0.75937,1.42221 c 1.17043,2.19203 2.92374,3.93124 4.98219,4.9421 l 1.87434,0.92046 24.50331,0.16556 24.50331,0.16556 1.65563,0.88103 c 1.97788,1.05251 3.47781,2.57591 4.45278,4.52242 0.8094,1.61596 1.28586,4.64528 0.78271,4.9766 -0.21291,0.14021 -0.0248,3.90436 0.53623,10.72923 l 0.86424,10.51324 -23.01997,0.006 c -25.86377,0.006 -25.65715,-0.01 -30.45911,2.35768 -5.25539,2.59076 -9.75599,8.2303 -11.09235,13.8995 -0.43417,1.84187 -0.49907,9.87743 -0.50334,62.31175 l -0.005,60.19719 -12.33443,-0.0979 c -12.24351,-0.0971 -12.3463,-0.10368 -13.94315,-0.88978 -3.61417,-1.77917 -5.16984,-4.32305 -5.54387,-9.06555 -0.42037,-5.32982 -2.20866,-8.28835 -6.19661,-10.25161 L 365.1198,415.9125 H 256.00689 146.89397 l -1.87018,0.87681 c -4.0936,1.91922 -6.12259,5.1636 -6.54015,10.45776 -0.37248,4.72273 -1.96475,7.30151 -5.62037,9.10258 -1.49951,0.73879 -1.79547,0.75699 -13.86665,0.85275 l -12.33443,0.0979 -0.005,-60.19719 z"
   id="path222"
   inkscape:connector-curvature="0" /></g>
</g>
<g
   id="g36">
	<g
   id="g34">
		<rect
   x="42.667"
   y="352"
   width="21.333"
   height="21.333"
   id="rect32" />
	</g>
</g>
<g
   id="g42">
	<g
   id="g40">
		<rect
   x="42.667"
   y="394.667"
   width="21.333"
   height="21.333"
   id="rect38" />
	</g>
</g>
<g
   id="g48">
	<g
   id="g46">
		<rect
   x="42.667"
   y="437.333"
   width="21.333"
   height="21.333"
   id="rect44" />
	</g>
</g>
<g
   id="g54">
	<g
   id="g52">
		<rect
   x="448"
   y="352"
   width="21.333"
   height="21.333"
   id="rect50" />
	</g>
</g>
<g
   id="g60">
	<g
   id="g58">
		<rect
   x="448"
   y="394.667"
   width="21.333"
   height="21.333"
   id="rect56" />
	</g>
</g>
<g
   id="g66">
	<g
   id="g64">
		<rect
   x="448"
   y="437.333"
   width="21.333"
   height="21.333"
   id="rect62" />
	</g>
</g>
<g
   id="g72">
	<g
   id="g70">
		
	</g>
</g>
<g
   id="g78">
	<g
   id="g76">
		
	</g>
</g>
<g
   id="g84">
	<g
   id="g82">
		
	</g>
</g>
<g
   id="g90">
	<g
   id="g88">
		
	</g>
</g>
<g
   id="g96">
	<g
   id="g94">
		
	</g>
</g>
<g
   id="g102">
	<g
   id="g100">
		
	</g>
</g>
<g
   id="g108">
	<g
   id="g106">
		
	</g>
</g>
<g
   id="g110">
</g>
<g
   id="g112">
</g>
<g
   id="g114">
</g>
<g
   id="g116">
</g>
<g
   id="g118">
</g>
<g
   id="g120">
</g>
<g
   id="g122">
</g>
<g
   id="g124">
</g>
<g
   id="g126">
</g>
<g
   id="g128">
</g>
<g
   id="g130">
</g>
<g
   id="g132">
</g>
<g
   id="g134">
</g>
<g
   id="g136">
</g>
<g
   id="g138">
</g>
<path
   style="fill:none;stroke:#000000;stroke-width:1px;stroke-linecap:butt;stroke-linejoin:miter;stroke-opacity:1"
   d="M 42.666,277.333 43.5,298.5"
   id="path153"
   inkscape:connector-curvature="0" /><path
   style="fill:none;stroke:#000000;stroke-width:1px;stroke-linecap:butt;stroke-linejoin:miter;stroke-opacity:1"
   d="M 469.335,277.333 471.5,303.5"
   id="path161"
   inkscape:connector-curvature="0" /><path
   style="fill:none;stroke:#000000;stroke-width:1px;stroke-linecap:butt;stroke-linejoin:miter;stroke-opacity:1"
   d="M 21.333,277.333 22,298.5"
   id="path204"
   inkscape:connector-curvature="0" /><path
   style="fill:none;stroke:#000000;stroke-width:1px;stroke-linecap:butt;stroke-linejoin:miter;stroke-opacity:1"
   d="m 36,304 7,7"
   id="path206"
   inkscape:connector-curvature="0" /><path
   style="fill:none;stroke:#000000;stroke-width:1px;stroke-linecap:butt;stroke-linejoin:miter;stroke-opacity:1"
   d="m 490.668,277.333 -0.001,21.334"
   id="path212"
   inkscape:connector-curvature="0" /><path
   style="fill:#000000;fill-opacity:1;stroke-width:0.5"
   d="m 22.497003,292.14534 c -0.0016,-3.50625 -0.147497,-8.23125 -0.324109,-10.5 l -0.321111,-4.125 H 31.925891 42 l 0.05819,3.125 c 0.03201,1.71875 0.200757,6.44414 0.375,10.50086 L 42.75,298.52206 32.625,298.5212 22.5,298.52034 Z"
   id="path214"
   inkscape:connector-curvature="0" /><path
   style="fill:#000000;fill-opacity:1;stroke-width:0.5"
   d="m 471.78604,297.39534 c -0.12815,-0.61875 -0.47766,-4.5 -0.77669,-8.625 -0.29903,-4.125 -0.66824,-8.34375 -0.82047,-9.375 l -0.27678,-1.875 H 479.95605 490 v 10.5 10.5 h -8.99047 c -8.92109,0 -8.99228,-0.009 -9.22349,-1.125 z"
   id="path216"
   inkscape:connector-curvature="0" /></svg>